<svg id="eweu8zmB6DQ1" xmlns="http://www.w3.org/2000/svg" xmlns:xlink="http://www.w3.org/1999/xlink" viewBox="160 200 200 200" shape-rendering="geometricPrecision" text-rendering="geometricPrecision" project-id="e2ed2487e2b9460caa1eada950fc82b9" export-id="2174e9e4450a4d359161f7dde502bf93" cached="false">
<g id="logo-rotator" transform="translate(250 250) scale(2) translate(-250 -250)">
  <g id="logo-rotator" transform="translate(0 -120)">

    <style>
      #logo-rotator {
        transform-box: fill-box;
        transform-origin: center;
        animation: spin 8s linear infinite;
      }

      @keyframes spin {
        from { transform: rotate(0deg); }
        to   { transform: rotate(360deg); }
      }
    </style>

    <g>
      <g>
      

        <g transform="translate(17.676352 22.398346)">

          <path d="M243.866,347.786c5.499-9.972,10.902-19.037,16.157-28.84-11.093.154-21.521.149-32.554.46c5.406,9.636,10.625,19.171,16.397,28.38v0v0Z" clip-rule="evenodd" fill="#f00" fill-rule="evenodd" />
          <path d="M297.939,315.402c.706.017,1.12-.506.766-1.119-5.518-9.534-10.421-18.979-16.174-28.416-5.323,9.239-9.843,18.606-14.92,27.911-.289.529-.128,1.107.478,1.116c10.029.152,19.822.27,29.85.508v0v0Z" clip-rule="evenodd" fill="#f00" fill-rule="evenodd" />
          <path d="M219.269,314.779c.518.001,1.163.15,1.152-.502-.01-.541-.363-.712-.569-1.091-5.037-9.276-9.916-18.272-15.043-27.67-5.701,9.138-10.715,18.582-16.246,27.928-.395.668.108,1.223.885,1.21c10.009-.165,19.858.102,29.821.125v0v0Z" clip-rule="evenodd" fill="#f00" fill-rule="evenodd" />
          <path d="M253.688,283.566c1.529-2.685,3.139-5.312,4.602-8.03c1.502-2.791,3.475-5.324,4.521-8.362-5.636-.107-11.035-.039-16.553-.016-5.759.024-11.477-.018-17.22.033-.789.007-1.629-.266-2.333.14-.818.472.253,1.517.66,2.278.71,1.329,1.494,2.797,2.282,4.182c1.578,2.772,3.086,5.587,4.698,8.367c3.364,5.802,6.177,11.751,9.943,17.43c3.345-5.292,6.341-10.648,9.4-16.022v0v0Zm-28.631,31.491c12.744-.019,24.998-.029,37.785-.013c6.215-10.987,11.711-22.244,17.754-33.379-5.917-10.887-11.585-21.508-17.518-32.334-12.714-.148-25.253.044-38.015-.102-6.047,10.725-11.787,21.514-17.797,32.371c5.98,11.166,11.79,22.333,17.791,33.457v0v0Z" clip-rule="evenodd" fill="#f00" fill-rule="evenodd" />
          <path d="M245.231,283.851c4.545-1.097,3.446-7.858-.852-8.01-4.477-.158-5.702,7.233-.818,8.084.782.135.912.109,1.67-.074v0v0Z" clip-rule="evenodd" fill="#f00" fill-rule="evenodd" />
          <path d="M282.773,277.703c6.016-9.812,11.572-18.794,17.301-28.696-11.134-.226-21.888-.107-32.977.223c5.246,9.833,10.162,18.98,15.676,28.473v0v0Z" clip-rule="evenodd" fill="#f00" fill-rule="evenodd" />
          <path d="M204.902,277.122c5.536-9.42,10.597-18.465,15.883-28.171-11.169-.45-21.763-.714-33.03-.849c5.594,9.912,11.266,19.192,17.147,29.02v0v0Z" clip-rule="evenodd" fill="#f00" fill-rule="evenodd" />
          <path d="M228.521,245.007c10.388-.086,20.428.094,30.806.099.703,0,.908-.588.553-1.189-2.822-4.772-5.228-9.68-7.99-14.435-2.805-4.827-5.167-9.987-8.274-14.493-5.637,9.722-10.532,18.971-16.011,28.618-.435.767.038,1.407.916,1.4v0v0Z" clip-rule="evenodd" fill="#f00" fill-rule="evenodd" />
        </g>

      </g>
    </g>

  </g>
</g>
</svg>
